<svg xmlns="http://www.w3.org/2000/svg" xmlns:svg="http://www.w3.org/2000/svg" id="svg5" width="210mm" height="297mm" version="1.1" viewBox="0 0 210 297"><defs id="defs2"><rect id="rect4041" width="89.969" height="105.103" x="-241.318" y="184.141"/><rect id="rect4073" width="89.969" height="105.103" x="-241.318" y="184.141"/><rect id="rect4079" width="89.969" height="105.103" x="-241.318" y="184.141"/><rect id="rect4085" width="89.969" height="105.103" x="-241.318" y="184.141"/><rect id="rect4091" width="89.969" height="105.103" x="-241.318" y="184.141"/><rect id="rect4097" width="89.969" height="105.103" x="-241.318" y="184.141"/><rect id="rect4103" width="89.969" height="105.103" x="-241.318" y="184.141"/><rect id="rect4109" width="89.969" height="105.103" x="-241.318" y="184.141"/><rect id="rect4115" width="89.969" height="105.103" x="-241.318" y="184.141"/><rect id="rect4121" width="89.969" height="105.103" x="-241.318" y="184.141"/><rect id="rect4127" width="89.969" height="105.103" x="-241.318" y="184.141"/><rect id="rect4133" width="89.969" height="105.103" x="-241.318" y="184.141"/><rect id="rect4139" width="89.969" height="105.103" x="-241.318" y="184.141"/><rect id="rect4145" width="89.969" height="105.103" x="-241.318" y="184.141"/><rect id="rect4151" width="89.969" height="105.103" x="-241.318" y="184.141"/><rect id="rect507" width="89.969" height="105.103" x="-241.318" y="184.141"/><rect id="rect509" width="89.969" height="105.103" x="-241.318" y="184.141"/><rect id="rect511" width="89.969" height="105.103" x="-241.318" y="184.141"/><rect id="rect513" width="89.969" height="105.103" x="-241.318" y="184.141"/><rect id="rect646" width="89.969" height="105.103" x="-241.318" y="184.141"/><rect id="rect1268" width="89.969" height="105.103" x="-241.318" y="184.141"/></defs><g id="layer1"><g id="g831"><rect style="fill:#ccc;stroke:#000;stroke-width:.111;paint-order:stroke fill markers;stop-color:#000" id="rect753" width="30" height="30" x="-84.247" y="10.011" ry="1.669" transform="scale(-1,1)"/><g id="g765" transform="matrix(-1,0,0,1,96.334128,0)"><path style="fill:#fc0;fill-opacity:.866667;stroke:#000;stroke-width:.911002;stroke-linecap:round;stroke-dasharray:none;paint-order:stroke fill markers;stop-color:#000" id="path755" d="M 14.294569,14.434049 H 25.534621"/><path style="fill:#fc0;fill-opacity:.866667;stroke:#000;stroke-width:.911002;stroke-linecap:round;stroke-dasharray:none;paint-order:stroke fill markers;stop-color:#000" id="path757" d="M 14.294569,19.908436 H 25.534621"/><path style="fill:#fc0;fill-opacity:.866667;stroke:#000;stroke-width:.911002;stroke-linecap:round;stroke-dasharray:none;paint-order:stroke fill markers;stop-color:#000" id="path759" d="M 14.294569,25.382824 H 25.534621"/><path style="fill:#fc0;fill-opacity:.866667;stroke:#000;stroke-width:.911002;stroke-linecap:round;stroke-dasharray:none;paint-order:stroke fill markers;stop-color:#000" id="path761" d="M 14.294569,30.85721 H 25.534621"/><path style="fill:#fc0;fill-opacity:.866667;stroke:#000;stroke-width:.911002;stroke-linecap:round;stroke-dasharray:none;paint-order:stroke fill markers;stop-color:#000" id="path763" d="M 14.294569,36.331598 H 25.534621"/></g><g id="g777" transform="matrix(-0.75308644,0,0,1.425,46.184332,-22.778043)" style="stroke-width:.965315"><rect style="fill:#ff2a2a;fill-opacity:1;stroke:#000;stroke-width:0;stroke-dasharray:none;paint-order:stroke fill markers;stop-color:#000" id="rect767" width="17.738" height="2.455" x="-29.971" y="24.805" ry=".8"/><rect style="fill:#ff2a2a;fill-opacity:1;stroke:#000;stroke-width:0;stroke-dasharray:none;paint-order:stroke fill markers;stop-color:#000" id="rect769" width="17.738" height="2.455" x="-29.971" y="28.641" ry=".8"/><rect style="fill:#ff2a2a;fill-opacity:1;stroke:#000;stroke-width:0;stroke-dasharray:none;paint-order:stroke fill markers;stop-color:#000" id="rect771" width="17.738" height="2.455" x="-29.971" y="32.477" ry=".8"/><rect style="fill:#ff2a2a;fill-opacity:1;stroke:#000;stroke-width:0;stroke-dasharray:none;paint-order:stroke fill markers;stop-color:#000" id="rect773" width="17.738" height="2.455" x="-29.971" y="36.312" ry=".8"/><rect style="fill:#ff2a2a;fill-opacity:1;stroke:#000;stroke-width:0;stroke-dasharray:none;paint-order:stroke fill markers;stop-color:#000" id="rect775" width="17.738" height="2.455" x="-30.252" y="40.148" ry=".8"/></g><g id="g789" transform="matrix(-1,0,0,1,35.034547,-12.677855)"><path id="path779" style="fill:#000;stroke:#000;stroke-width:0;stroke-linecap:round;paint-order:stroke fill markers;stop-color:#000" d="m -31.274505,28.360526 1.978651,-2.611217 h -3.957302 z"/><path id="path781" style="fill:#000;stroke:#000;stroke-width:0;stroke-linecap:round;paint-order:stroke fill markers;stop-color:#000" d="m -31.274505,33.836857 1.978651,-2.611217 h -3.957302 z"/><path id="path783" style="fill:#000;stroke:#000;stroke-width:0;stroke-linecap:round;paint-order:stroke fill markers;stop-color:#000" d="m -31.274505,39.313188 1.978651,-2.611217 h -3.957302 z"/><path id="path785" style="fill:#000;stroke:#000;stroke-width:0;stroke-linecap:round;paint-order:stroke fill markers;stop-color:#000" d="m -31.274505,44.789519 1.978651,-2.611217 h -3.957302 z"/><path id="path787" style="fill:#000;stroke:#000;stroke-width:0;stroke-linecap:round;paint-order:stroke fill markers;stop-color:#000" d="m -31.274505,50.26585 1.978651,-2.611217 h -3.957302 z"/></g></g><rect style="opacity:1;fill:#ccc;stroke:#000;stroke-width:.111;paint-order:stroke fill markers;stop-color:#000" id="rect631" width="30" height="30" x="27.054" y="191.546" ry="1.669"/><rect style="opacity:1;fill:#ff2a2a;stroke:#000;stroke-width:0;stroke-dasharray:none;paint-order:stroke fill markers;stop-color:#000" id="rect633" width="15.35" height="5.117" x="34.457" y="206.229" ry="1.669"/><g id="g2214" transform="translate(-88.542653,59.621686)"><path style="opacity:1;fill:#fc0;fill-opacity:.866667;stroke:#000;stroke-width:.911;stroke-linecap:round;stroke-dasharray:none;paint-order:stroke fill markers;stop-color:#000" id="path635" d="m 117.45083,155.78627 h 26.44859"/><path style="opacity:1;fill:#fc0;fill-opacity:.866667;stroke:#000;stroke-width:.911;stroke-linecap:round;stroke-dasharray:none;paint-order:stroke fill markers;stop-color:#000" id="path637" d="m 117.45083,158.12449 h 26.44859"/><path style="opacity:1;fill:#fc0;fill-opacity:.866667;stroke:#000;stroke-width:.911;stroke-linecap:round;stroke-dasharray:none;paint-order:stroke fill markers;stop-color:#000" id="path639" d="m 117.45083,160.46271 h 26.44859"/></g><path style="opacity:1;fill:#00f;fill-opacity:.866667;stroke:#000;stroke-width:0;stroke-linecap:round;stroke-dasharray:none;paint-order:stroke fill markers;stop-color:#000" id="path643" d="m 124.80947,68.791887 -2.87646,1.246932 -1.18761,2.901464 -2.91568,-1.152255 -2.89141,1.211884 -1.24693,-2.876467 -2.90146,-1.187603 1.15225,-2.915683 -1.21188,-2.891407 2.87647,-1.246932 1.1876,-2.901464 2.91568,1.152255 2.89141,-1.211883 1.24693,2.876466 2.90147,1.187603 -1.15226,2.915683 z" transform="matrix(0.74301675,0,0,0.74301675,-53.984872,150.80028)"/><text id="text4039" transform="matrix(0.26458333,0,0,0.26458333,31.517324,-64.809574)" xml:space="preserve" style="font-size:24px;line-height:1.25;font-family:'Constance Script SL';-inkscape-font-specification:'Constance Script SL, Normal';text-decoration-color:#000;letter-spacing:0;word-spacing:0;white-space:pre;shape-inside:url(#rect4041);display:inline;fill:#000;fill-opacity:1;stroke:#000;stroke-width:0;stroke-linecap:round;paint-order:stroke fill markers;stop-color:#000"><tspan id="tspan933" x="-241.318" y="205.759"><tspan style="font-family:Arial;-inkscape-font-specification:Arial" id="tspan931">?</tspan></tspan></text><g id="g853"><g id="g751"><rect style="fill:#ccc;stroke:#000;stroke-width:.111;paint-order:stroke fill markers;stop-color:#000" id="rect330" width="30" height="30" x="12.088" y="10.011" ry="1.669"/><g id="g549"><path style="fill:#fc0;fill-opacity:.866667;stroke:#000;stroke-width:.911002;stroke-linecap:round;stroke-dasharray:none;paint-order:stroke fill markers;stop-color:#000" id="path334" d="M 14.294569,14.434049 H 25.534621"/><path style="fill:#fc0;fill-opacity:.866667;stroke:#000;stroke-width:.911002;stroke-linecap:round;stroke-dasharray:none;paint-order:stroke fill markers;stop-color:#000" id="path336" d="M 14.294569,19.908436 H 25.534621"/><path style="fill:#fc0;fill-opacity:.866667;stroke:#000;stroke-width:.911002;stroke-linecap:round;stroke-dasharray:none;paint-order:stroke fill markers;stop-color:#000" id="path338" d="M 14.294569,25.382824 H 25.534621"/><path style="fill:#fc0;fill-opacity:.866667;stroke:#000;stroke-width:.911002;stroke-linecap:round;stroke-dasharray:none;paint-order:stroke fill markers;stop-color:#000" id="path504" d="M 14.294569,30.85721 H 25.534621"/><path style="fill:#fc0;fill-opacity:.866667;stroke:#000;stroke-width:.911002;stroke-linecap:round;stroke-dasharray:none;paint-order:stroke fill markers;stop-color:#000" id="path506" d="M 14.294569,36.331598 H 25.534621"/></g><g id="g530" transform="matrix(0.75308644,0,0,1.425,50.149796,-22.778043)" style="stroke-width:.965315"><rect style="fill:#ff2a2a;fill-opacity:1;stroke:#000;stroke-width:0;stroke-dasharray:none;paint-order:stroke fill markers;stop-color:#000" id="rect332" width="17.738" height="2.455" x="-29.971" y="24.805" ry=".8"/><rect style="fill:#ff2a2a;fill-opacity:1;stroke:#000;stroke-width:0;stroke-dasharray:none;paint-order:stroke fill markers;stop-color:#000" id="rect516" width="17.738" height="2.455" x="-29.971" y="28.641" ry=".8"/><rect style="fill:#ff2a2a;fill-opacity:1;stroke:#000;stroke-width:0;stroke-dasharray:none;paint-order:stroke fill markers;stop-color:#000" id="rect518" width="17.738" height="2.455" x="-29.971" y="32.477" ry=".8"/><rect style="fill:#ff2a2a;fill-opacity:1;stroke:#000;stroke-width:0;stroke-dasharray:none;paint-order:stroke fill markers;stop-color:#000" id="rect521" width="17.738" height="2.455" x="-29.971" y="36.312" ry=".8"/><rect style="fill:#ff2a2a;fill-opacity:1;stroke:#000;stroke-width:0;stroke-dasharray:none;paint-order:stroke fill markers;stop-color:#000" id="rect523" width="17.738" height="2.455" x="-30.252" y="40.148" ry=".8"/></g><g id="g730" transform="translate(69.55832,-12.677855)"><path id="rect702" style="fill:#000;stroke:#000;stroke-width:0;stroke-linecap:round;paint-order:stroke fill markers;stop-color:#000" d="m -31.274505,28.360526 1.978651,-2.611217 h -3.957302 z"/><path id="path717" style="fill:#000;stroke:#000;stroke-width:0;stroke-linecap:round;paint-order:stroke fill markers;stop-color:#000" d="m -31.274505,33.836857 1.978651,-2.611217 h -3.957302 z"/><path id="path719" style="fill:#000;stroke:#000;stroke-width:0;stroke-linecap:round;paint-order:stroke fill markers;stop-color:#000" d="m -31.274505,39.313188 1.978651,-2.611217 h -3.957302 z"/><path id="path721" style="fill:#000;stroke:#000;stroke-width:0;stroke-linecap:round;paint-order:stroke fill markers;stop-color:#000" d="m -31.274505,44.789519 1.978651,-2.611217 h -3.957302 z"/><path id="path723" style="fill:#000;stroke:#000;stroke-width:0;stroke-linecap:round;paint-order:stroke fill markers;stop-color:#000" d="m -31.274505,50.26585 1.978651,-2.611217 h -3.957302 z"/></g></g></g></g></svg>