<svg xmlns="http://www.w3.org/2000/svg" xmlns:svg="http://www.w3.org/2000/svg" xmlns:xlink="http://www.w3.org/1999/xlink" id="svg5" width="297mm" height="210mm" version="1.1" viewBox="0 0 297 210" xml:space="preserve"><defs id="defs2"><rect id="rect623" width="300.329" height="49.207" x="-398.742" y="184.949"/><rect id="rect631" width="300.329" height="49.207" x="-398.742" y="184.949"/><rect id="rect637" width="341.052" height="52.6" x="-398.742" y="184.949"/><rect id="rect643" width="358.02" height="49.207" x="-398.742" y="184.949"/><rect id="rect649" width="359.717" height="59.387" x="-398.742" y="184.949"/><rect id="rect655" width="300.329" height="49.207" x="-398.742" y="184.949"/><rect id="rect711" width="344.446" height="50.903" x="-398.742" y="184.949"/><rect id="rect623-3" width="300.329" height="49.207" x="-398.742" y="184.949"/><rect id="rect631-4" width="300.329" height="49.207" x="-398.742" y="184.949"/><rect id="rect637-8" width="341.052" height="52.6" x="-398.742" y="184.949"/><rect id="rect643-8" width="358.02" height="49.207" x="-398.742" y="184.949"/><rect id="rect649-9" width="359.717" height="59.387" x="-398.742" y="184.949"/><rect id="rect655-3" width="300.329" height="49.207" x="-398.742" y="184.949"/><rect id="rect711-3" width="344.446" height="50.903" x="-398.742" y="184.949"/><rect id="rect849" width="327.152" height="51.27" x="-398.742" y="184.949"/><rect id="rect855" width="341.052" height="52.6" x="-398.742" y="184.949"/><rect id="rect623-3-2" width="705.668" height="56.523" x="-398.742" y="184.949"/><rect id="rect631-4-3" width="300.329" height="49.207" x="-398.742" y="184.949"/><rect id="rect637-8-8" width="658.965" height="60.858" x="-398.742" y="184.949"/><rect id="rect643-8-2" width="358.02" height="49.207" x="-398.742" y="184.949"/><rect id="rect649-9-2" width="646.664" height="69.709" x="-398.742" y="184.949"/><rect id="rect655-3-6" width="585.676" height="50.67" x="-398.742" y="184.949"/><rect id="rect711-3-7" width="577.719" height="52.968" x="-398.742" y="184.949"/><rect id="rect849-7" width="587.398" height="57.463" x="-398.742" y="184.949"/><rect id="rect855-6" width="675.48" height="58.793" x="-398.742" y="184.949"/><rect id="rect1203" width="624.935" height="56.99" x="-398.742" y="184.949"/><rect id="rect1209" width="341.052" height="52.6" x="-398.742" y="184.949"/><rect id="rect1351" width="705.668" height="56.523" x="-398.742" y="184.949"/><rect id="rect1353" width="341.052" height="52.6" x="-398.742" y="184.949"/><rect id="rect1355" width="359.717" height="59.387" x="-398.742" y="184.949"/><rect id="rect1357" width="585.676" height="50.67" x="-398.742" y="184.949"/><rect id="rect1359" width="344.446" height="50.903" x="-398.742" y="184.949"/><rect id="rect1361" width="352.06" height="51.27" x="-398.742" y="184.949"/><rect id="rect1363" width="341.052" height="52.6" x="-398.742" y="184.949"/><rect id="rect1365" width="624.935" height="56.99" x="-398.742" y="184.949"/><rect id="rect1371" width="705.668" height="56.523" x="-398.742" y="184.949"/><rect id="rect1377" width="705.668" height="56.523" x="-398.742" y="184.949"/><rect id="rect1574" width="705.668" height="56.523" x="-398.742" y="184.949"/><rect id="rect1580" width="577.719" height="52.968" x="-398.742" y="184.949"/><rect id="rect623-3-2-0" width="705.668" height="56.523" x="-398.742" y="184.949"/><rect id="rect637-8-8-6" width="658.965" height="60.858" x="-398.742" y="184.949"/><rect id="rect649-9-2-6" width="646.664" height="69.709" x="-398.742" y="184.949"/><rect id="rect655-3-6-5" width="585.676" height="50.67" x="-398.742" y="184.949"/><rect id="rect711-3-7-2" width="577.719" height="52.968" x="-398.742" y="184.949"/><rect id="rect849-7-8" width="587.398" height="57.463" x="-398.742" y="184.949"/><rect id="rect855-6-6" width="675.48" height="58.793" x="-398.742" y="184.949"/><rect id="rect1203-7" width="624.935" height="56.99" x="-398.742" y="184.949"/><rect id="rect1371-2" width="705.668" height="56.523" x="-398.742" y="184.949"/><rect id="rect1574-5" width="705.668" height="56.523" x="-398.742" y="184.949"/></defs><g id="layer1" style="display:none"><rect style="fill:#e3dbdb;fill-rule:evenodd;stroke:#000;stroke-width:.264583;stroke-linecap:round;stroke-linejoin:round;stop-color:#000" id="rect191" width="137.602" height="191.251" x="8.583" y="11.661"/><rect style="fill:#afe9dd;fill-rule:evenodd;stroke:#000;stroke-width:.264583;stroke-linecap:round;stroke-linejoin:round;stop-color:#000" id="rect1514" width="131.752" height="161.1" x="10.175" y="30.048"/><g id="g1195" transform="matrix(0.70884477,0,0,0.74791664,0.83146288,1.361988)" style="stroke-width:1.3734"><rect style="fill:#e5d5ff;fill-rule:evenodd;stroke:#000;stroke-width:.363379;stroke-linecap:round;stroke-linejoin:round;stop-color:#000" id="rect1190" width="164.312" height="144.109" x="29.439" y="51.819"/><rect style="fill:#e5d5ff;fill-rule:evenodd;stroke:#000;stroke-width:.363379;stroke-linecap:round;stroke-linejoin:round;stop-color:#000" id="rect1188" width="164.312" height="144.109" x="24.147" y="57.111"/><rect style="fill:#e5d5ff;fill-rule:evenodd;stroke:#000;stroke-width:.363379;stroke-linecap:round;stroke-linejoin:round;stop-color:#000" id="rect1134" width="164.312" height="144.109" x="18.855" y="62.402"/></g><rect style="fill:#2a7fff;fill-rule:evenodd;stroke:#000;stroke-width:.264583;stroke-linecap:round;stroke-linejoin:round;stop-color:#000" id="rect455" width="132.157" height="8.91" x="10.071" y="19.838"/><rect style="fill:#80b3ff;fill-rule:evenodd;stroke:#000;stroke-width:.264583;stroke-linecap:round;stroke-linejoin:round;stop-color:#000" id="rect561" width="99.663" height="25.229" x="24.959" y="60.153"/><rect style="fill:#acf;fill-rule:evenodd;stroke:#000;stroke-width:.264582;stroke-linecap:round;stroke-linejoin:round;stop-color:#000" id="rect563" width="99.663" height="64.957" x="25.017" y="88.313"/><rect style="fill:#2a7fff;fill-rule:evenodd;stroke:#000;stroke-width:.264583;stroke-linecap:round;stroke-linejoin:round;stop-color:#000" id="rect565" width="131.752" height="8.91" x="10.282" y="192.411"/><rect style="fill:#d5e5ff;fill-rule:evenodd;stroke:#000;stroke-width:.264583;stroke-linecap:round;stroke-linejoin:round;stop-color:#000" id="rect567" width="121.881" height="14.956" x="13.879" y="157.407"/><rect style="fill:#cfa;fill-rule:evenodd;stroke:#000;stroke-width:.264584;stroke-linecap:round;stroke-linejoin:round;stop-color:#000" id="rect843" width="121.881" height="15.275" x="14.515" y="173.851"/><rect style="fill:#e3dbdb;fill-rule:evenodd;stroke:#000;stroke-width:.264583;stroke-linecap:round;stroke-linejoin:round;stop-color:#000" id="rect1297" width="137.602" height="191.251" x="154.524" y="11.661"/><rect style="fill:#afe9dd;fill-rule:evenodd;stroke:#000;stroke-width:.264583;stroke-linecap:round;stroke-linejoin:round;stop-color:#000" id="rect1516" width="131.752" height="161.1" x="157.283" y="30.048"/><g id="g1305" transform="matrix(0.70884477,0,0,0.95784514,147.07406,-9.5153193)" style="stroke-width:1.2136"><rect style="fill:#e5d5ff;fill-rule:evenodd;stroke:#000;stroke-width:.321099;stroke-linecap:round;stroke-linejoin:round;stop-color:#000" id="rect1299" width="164.312" height="144.109" x="29.439" y="51.819"/><rect style="fill:#e5d5ff;fill-rule:evenodd;stroke:#000;stroke-width:.321099;stroke-linecap:round;stroke-linejoin:round;stop-color:#000" id="rect1301" width="164.312" height="144.109" x="24.147" y="57.111"/><rect style="fill:#e5d5ff;fill-rule:evenodd;stroke:#000;stroke-width:.321099;stroke-linecap:round;stroke-linejoin:round;stop-color:#000" id="rect1303" width="164.312" height="144.109" x="18.855" y="62.402"/></g><rect style="fill:#2a7fff;fill-rule:evenodd;stroke:#000;stroke-width:.264583;stroke-linecap:round;stroke-linejoin:round;stop-color:#000" id="rect1307" width="132.157" height="8.91" x="157.531" y="19.838"/><rect style="fill:#80b3ff;fill-rule:evenodd;stroke:#000;stroke-width:.264583;stroke-linecap:round;stroke-linejoin:round;stop-color:#000" id="rect1309" width="99.663" height="25.229" x="171.201" y="60.153"/><rect style="fill:#acf;fill-rule:evenodd;stroke:#000;stroke-width:.264583;stroke-linecap:round;stroke-linejoin:round;stop-color:#000" id="rect1311" width="99.663" height="96.16" x="171.259" y="88.313"/><rect style="fill:#2a7fff;fill-rule:evenodd;stroke:#000;stroke-width:.264583;stroke-linecap:round;stroke-linejoin:round;stop-color:#000" id="rect1313" width="132.07" height="8.91" x="157.054" y="192.411"/></g><g id="layer2" style="display:none"><text id="text621" transform="matrix(0.15423424,0,0,0.15423131,76.570947,-15.833053)" xml:space="preserve" style="font-size:40px;line-height:1.25;font-family:'Yu Gothic UI';-inkscape-font-specification:'Yu Gothic UI';letter-spacing:0;word-spacing:0;white-space:pre;shape-inside:url(#rect623-3-2);display:inline;stroke-width:1.71548"><tspan id="tspan2892" x="-398.742" y="220.979">quiz_div_main - 650 x ###</tspan></text><text id="text629" transform="matrix(0.15423424,0,0,0.15423131,-4.6844429,124.26505)" xml:space="preserve" style="font-size:40px;line-height:1.25;font-family:'Yu Gothic UI';-inkscape-font-specification:'Yu Gothic UI';letter-spacing:0;word-spacing:0;white-space:pre;shape-inside:url(#rect631-4-3);display:inline;stroke-width:1.71548"><tspan id="tspan2894" x="-398.742" y="220.979">quiz_div_results</tspan></text><text id="text635" transform="matrix(0.15423424,0,0,0.15423131,77.895105,146.53931)" xml:space="preserve" style="font-size:40px;line-height:1.25;font-family:'Yu Gothic UI';-inkscape-font-specification:'Yu Gothic UI';letter-spacing:0;word-spacing:0;white-space:pre;shape-inside:url(#rect637-8-8);display:inline;stroke-width:1.71548"><tspan id="tspan2896" x="-398.742" y="220.979">quiz_div_message - 100% x 50 px</tspan></text><text id="text641" transform="matrix(0.15423424,0,0,0.15423131,-7.2844329,75.403053)" xml:space="preserve" style="font-size:40px;line-height:1.25;font-family:'Yu Gothic UI';-inkscape-font-specification:'Yu Gothic UI';letter-spacing:0;word-spacing:0;white-space:pre;shape-inside:url(#rect643-8-2);display:inline;stroke-width:1.71548"><tspan id="tspan2898" x="-398.742" y="220.979">quiz_div_comment</tspan></text><text id="text647" transform="matrix(0.15423424,0,0,0.15423131,87.716446,39.544276)" xml:space="preserve" style="font-size:40px;line-height:1.25;font-family:'Yu Gothic UI';-inkscape-font-specification:'Yu Gothic UI';letter-spacing:0;word-spacing:0;white-space:pre;shape-inside:url(#rect649-9-2);display:inline;stroke-width:1.71548"><tspan id="tspan2900" x="-398.742" y="220.979">quiz_div_question_# - 90% x 300px</tspan></text><text id="text653" transform="matrix(0.15423424,0,0,0.15423131,79.477218,-7.7450737)" xml:space="preserve" style="font-size:40px;line-height:1.25;font-family:'Yu Gothic UI';-inkscape-font-specification:'Yu Gothic UI';letter-spacing:0;word-spacing:0;white-space:pre;shape-inside:url(#rect655-3-6);display:inline;stroke-width:1.71548"><tspan id="tspan2902" x="-398.742" y="220.979">quiz_div_title - 100% x 32px</tspan></text><text id="text709" transform="matrix(0.15423424,0,0,0.15423131,77.023424,164.28928)" xml:space="preserve" style="font-size:40px;line-height:1.25;font-family:'Yu Gothic UI';-inkscape-font-specification:'Yu Gothic UI';letter-spacing:0;word-spacing:0;white-space:pre;shape-inside:url(#rect711-3-7);display:inline;stroke-width:1.71548"><tspan id="tspan2904" x="-398.742" y="220.979">quiz_div_version - 100% x 32 px</tspan></text><text id="text847" transform="matrix(0.15423424,0,0,0.15423131,90.61519,67.451738)" xml:space="preserve" style="font-size:40px;line-height:1.25;font-family:'Yu Gothic UI';-inkscape-font-specification:'Yu Gothic UI';letter-spacing:0;word-spacing:0;white-space:pre;shape-inside:url(#rect849-7);display:inline;stroke-width:1.71548"><tspan id="tspan2906" x="-398.742" y="220.979">quiz_div_options_# - 90% x ###</tspan></text><text id="text853" transform="matrix(0.15423424,0,0,0.15423131,84.887093,128.38487)" xml:space="preserve" style="font-size:40px;line-height:1.25;font-family:'Yu Gothic UI';-inkscape-font-specification:'Yu Gothic UI';letter-spacing:0;word-spacing:0;white-space:pre;shape-inside:url(#rect855-6);display:inline;stroke-width:1.71548"><tspan id="tspan2908" x="-398.742" y="220.979">quiz_div_buttons - 100% x 50px</tspan></text><text id="text1201" transform="matrix(0.15423424,0,0,0.15423131,77.44372,21.281772)" xml:space="preserve" style="font-size:40px;line-height:1.25;font-family:'Yu Gothic UI';-inkscape-font-specification:'Yu Gothic UI';letter-spacing:0;word-spacing:0;white-space:pre;shape-inside:url(#rect1203);display:inline;stroke-width:1.71548"><tspan id="tspan2910" x="-398.742" y="220.979">quiz_div_slide_# - 100% x 300px</tspan></text><text id="text1349" transform="matrix(0.15423424,0,0,0.15423131,223.68632,21.281772)" xml:space="preserve" style="font-size:40px;line-height:1.25;font-family:'Yu Gothic UI';-inkscape-font-specification:'Yu Gothic UI';letter-spacing:0;word-spacing:0;white-space:pre;shape-inside:url(#rect1365);display:inline;stroke-width:1.71548"><tspan id="tspan2912" x="-398.742" y="220.979">quiz_div_slide_# - 100% x 400px</tspan></text><text id="text1369" transform="matrix(0.15423424,0,0,0.15423131,94.401139,-25.703338)" xml:space="preserve" style="font-size:40px;line-height:1.25;font-family:'Yu Gothic UI';-inkscape-font-specification:'Yu Gothic UI';letter-spacing:0;word-spacing:0;white-space:pre;shape-inside:url(#rect1371);display:inline;stroke-width:1.71548"><tspan id="tspan2914" x="-398.742" y="220.979">Cas n° 1 - pages des questions</tspan></text><text id="text1375" transform="matrix(0.15423424,0,0,0.15423131,236.66697,-25.703338)" xml:space="preserve" style="font-size:40px;line-height:1.25;font-family:'Yu Gothic UI';-inkscape-font-specification:'Yu Gothic UI';letter-spacing:0;word-spacing:0;white-space:pre;shape-inside:url(#rect1377);display:inline;stroke-width:1.71548"><tspan id="tspan2916" x="-398.742" y="220.979">Cas n° 2 - pages begin/end/group</tspan></text><text id="text1572" transform="matrix(0.15423424,0,0,0.15423131,76.570947,2.952328)" xml:space="preserve" style="font-size:40px;line-height:1.25;font-family:'Yu Gothic UI';-inkscape-font-specification:'Yu Gothic UI';letter-spacing:0;word-spacing:0;white-space:pre;shape-inside:url(#rect1574);display:inline;stroke-width:1.71548"><tspan id="tspan2918" x="-398.742" y="220.979">quiz_div_body - 100% x 480 px</tspan></text><text id="text1578" transform="matrix(0.15423424,0,0,0.15423131,221.57534,164.28928)" xml:space="preserve" style="font-size:40px;line-height:1.25;font-family:'Yu Gothic UI';-inkscape-font-specification:'Yu Gothic UI';letter-spacing:0;word-spacing:0;white-space:pre;shape-inside:url(#rect1580);display:inline;stroke-width:1.71548"><tspan id="tspan2920" x="-398.742" y="220.979">quiz_div_version - 100% x 32 px</tspan></text><rect style="fill:#cfa;fill-rule:evenodd;stroke:#000;stroke-width:.264583;stroke-linecap:round;stroke-linejoin:round;stop-color:#000" id="rect2015" width="171.979" height="12.736" x=".637" y="-14.009"/></g><image id="image2025" width="171.979" height="189.249" x="109.824" y="4.874" preserveAspectRatio="none" xlink:href="Image%20078.jpg" style="display:inline;stroke-width:.314296"/><rect style="display:inline;fill:#e3dbdb;fill-rule:evenodd;stroke:#000;stroke-width:.264583;stroke-linecap:round;stroke-linejoin:round;stop-color:#000" id="rect191-1" width="99.48" height="182.298" x="8.888" y="8.846"/><rect style="display:inline;fill:#afe9dd;fill-rule:evenodd;stroke:#000;stroke-width:.264582;stroke-linecap:round;stroke-linejoin:round;stop-color:#000" id="rect1514-2" width="88.435" height="153.432" x="8.888" y="17.048"/><rect style="fill:#e5d5ff;fill-rule:evenodd;stroke:#000;stroke-width:.264583;stroke-linecap:round;stroke-linejoin:round;stop-color:#000" id="rect1190-4" width="84.401" height="40.919" x="112.955" y="16.926"/><rect style="fill:#e5d5ff;fill-rule:evenodd;stroke:#000;stroke-width:.264583;stroke-linecap:round;stroke-linejoin:round;stop-color:#000" id="rect1188-3" width="32.502" height="131.343" x="44.329" y="16.745"/><rect style="fill:#e5d5ff;fill-rule:evenodd;stroke:#000;stroke-width:.264583;stroke-linecap:round;stroke-linejoin:round;stop-color:#000" id="rect1134-5" width="32.184" height="153.458" x="8.888" y="17.048"/><rect style="display:inline;fill:#2a7fff;fill-rule:evenodd;stroke:#000;stroke-width:.264583;stroke-linecap:round;stroke-linejoin:round;stop-color:#000" id="rect455-9" width="88.355" height="8.202" x="8.888" y="8.846"/><rect style="display:inline;fill:#80b3ff;fill-rule:evenodd;stroke:#000;stroke-width:.264582;stroke-linecap:round;stroke-linejoin:round;stop-color:#000" id="rect561-9" width="23.548" height="34.463" x="9.61" y="17.285"/><rect style="display:inline;fill:#acf;fill-rule:evenodd;stroke:#000;stroke-width:.264583;stroke-linecap:round;stroke-linejoin:round;stop-color:#000" id="rect563-4" width="24.461" height="120.04" x="7.742" y="51.111"/><rect style="display:inline;fill:#2a7fff;fill-rule:evenodd;stroke:#000;stroke-width:.264583;stroke-linecap:round;stroke-linejoin:round;stop-color:#000" id="rect565-6" width="95.065" height="5.027" x="8.888" y="186.117"/><rect style="display:inline;fill:#d5e5ff;fill-rule:evenodd;stroke:#000;stroke-width:.264583;stroke-linecap:round;stroke-linejoin:round;stop-color:#000" id="rect567-3" width="33.557" height="20.902" x="43.511" y="149.816"/><rect style="display:inline;fill:#cfa;fill-rule:evenodd;stroke:#000;stroke-width:.264584;stroke-linecap:round;stroke-linejoin:round;stop-color:#000" id="rect843-1" width="93.734" height="15.61" x="8.888" y="170.506"/><rect style="display:inline;fill:#afe9dd;fill-rule:evenodd;stroke:#000;stroke-width:.264582;stroke-linecap:round;stroke-linejoin:round;stop-color:#000" id="rect2601" width="44.178" height="132.736" x="-157.32" y="11.954"/><rect style="display:inline;fill:#00d455;fill-rule:evenodd;stroke:#000;stroke-width:.264583;stroke-linecap:round;stroke-linejoin:round;stop-color:#000" id="rect2603" width="38.651" height="7.673" x="-113.776" y="185.158"/><rect style="display:inline;fill:#80b3ff;fill-rule:evenodd;stroke:#000;stroke-width:.264583;stroke-linecap:round;stroke-linejoin:round;stop-color:#000" id="rect2605" width="23.548" height="34.131" x="48.136" y="16.33"/><rect style="display:inline;fill:#acf;fill-rule:evenodd;stroke:#000;stroke-width:.264583;stroke-linecap:round;stroke-linejoin:round;stop-color:#000" id="rect2607" width="24.461" height="95.841" x="46.586" y="50.793"/><image id="image2617" width="171.979" height="186.702" x="214.465" y="5.495" preserveAspectRatio="none" xlink:href="Image%20079.jpg" style="stroke-width:.316432"/></svg>