<svg xmlns="http://www.w3.org/2000/svg" xmlns:svg="http://www.w3.org/2000/svg" id="svg5" width="210mm" height="297mm" version="1.1" viewBox="0 0 210 297"><defs id="defs2"><rect id="rect4041" width="89.969" height="105.103" x="-241.318" y="184.141"/><rect id="rect4073" width="89.969" height="105.103" x="-241.318" y="184.141"/><rect id="rect4079" width="89.969" height="105.103" x="-241.318" y="184.141"/><rect id="rect4085" width="89.969" height="105.103" x="-241.318" y="184.141"/><rect id="rect4091" width="89.969" height="105.103" x="-241.318" y="184.141"/><rect id="rect4097" width="89.969" height="105.103" x="-241.318" y="184.141"/><rect id="rect4103" width="89.969" height="105.103" x="-241.318" y="184.141"/><rect id="rect4109" width="89.969" height="105.103" x="-241.318" y="184.141"/><rect id="rect4115" width="89.969" height="105.103" x="-241.318" y="184.141"/><rect id="rect4121" width="89.969" height="105.103" x="-241.318" y="184.141"/><rect id="rect4127" width="89.969" height="105.103" x="-241.318" y="184.141"/><rect id="rect4133" width="89.969" height="105.103" x="-241.318" y="184.141"/><rect id="rect4139" width="89.969" height="105.103" x="-241.318" y="184.141"/><rect id="rect4145" width="89.969" height="105.103" x="-241.318" y="184.141"/><rect id="rect4151" width="89.969" height="105.103" x="-241.318" y="184.141"/><rect id="rect507" width="89.969" height="105.103" x="-241.318" y="184.141"/><rect id="rect509" width="89.969" height="105.103" x="-241.318" y="184.141"/><rect id="rect511" width="89.969" height="105.103" x="-241.318" y="184.141"/><rect id="rect513" width="89.969" height="105.103" x="-241.318" y="184.141"/><rect id="rect646" width="89.969" height="105.103" x="-241.318" y="184.141"/><rect id="rect1268" width="89.969" height="105.103" x="-241.318" y="184.141"/><rect id="rect624" width="89.969" height="105.103" x="-241.318" y="184.141"/><rect id="rect626" width="89.969" height="105.103" x="-241.318" y="184.141"/><rect id="rect628" width="89.969" height="105.103" x="-241.318" y="184.141"/><rect id="rect630" width="89.969" height="105.103" x="-241.318" y="184.141"/><rect id="rect632" width="89.969" height="105.103" x="-241.318" y="184.141"/><rect id="rect634" width="89.969" height="105.103" x="-241.318" y="184.141"/><rect id="rect636" width="89.969" height="105.103" x="-241.318" y="184.141"/></defs><g id="layer1" style="display:inline"><rect style="fill:#ccc;stroke:#000;stroke-width:.111;paint-order:stroke fill markers;stop-color:#000" id="rect330" width="30" height="30" x="13.146" y="10.011" ry="1.669"/><rect style="fill:#ff2a2a;fill-opacity:1;stroke:#000;stroke-width:0;stroke-dasharray:none;paint-order:stroke fill markers;stop-color:#000" id="rect4067" width="15.35" height="7.786" x="18.691" y="-27.475" ry="2.539"/><text id="text4071" transform="matrix(0.26458333,0,0,0.26458333,152.76292,-72.595988)" xml:space="preserve" style="font-size:24px;line-height:1.25;font-family:'Constance Script SL';-inkscape-font-specification:'Constance Script SL, Normal';text-decoration-color:#000;letter-spacing:0;word-spacing:0;white-space:pre;shape-inside:url(#rect4073);display:inline;fill:#000;fill-opacity:1;stroke:#000;stroke-width:0;stroke-linecap:round;paint-order:stroke fill markers;stop-color:#000"><tspan id="tspan794" x="-241.318" y="205.759"><tspan style="font-family:Arial;-inkscape-font-specification:Arial" id="tspan792">?</tspan></tspan></text><text id="text4077" transform="matrix(0.26458333,0,0,0.26458333,152.76292,-72.595988)" xml:space="preserve" style="font-size:24px;line-height:1.25;font-family:'Constance Script SL';-inkscape-font-specification:'Constance Script SL, Normal';text-decoration-color:#000;letter-spacing:0;word-spacing:0;white-space:pre;shape-inside:url(#rect4079);display:inline;fill:#000;fill-opacity:1;stroke:#000;stroke-width:0;stroke-linecap:round;paint-order:stroke fill markers;stop-color:#000"><tspan id="tspan798" x="-241.318" y="205.759"><tspan style="font-family:Arial;-inkscape-font-specification:Arial" id="tspan796">?</tspan></tspan></text><text id="text4083" transform="matrix(0.26458333,0,0,0.26458333,152.76292,-72.595988)" xml:space="preserve" style="font-size:24px;line-height:1.25;font-family:'Constance Script SL';-inkscape-font-specification:'Constance Script SL, Normal';text-decoration-color:#000;letter-spacing:0;word-spacing:0;white-space:pre;shape-inside:url(#rect4085);display:inline;fill:#000;fill-opacity:1;stroke:#000;stroke-width:0;stroke-linecap:round;paint-order:stroke fill markers;stop-color:#000"><tspan id="tspan802" x="-241.318" y="205.759"><tspan style="font-family:Arial;-inkscape-font-specification:Arial" id="tspan800">?</tspan></tspan></text><text id="text4089" transform="matrix(0.26458333,0,0,0.26458333,152.76292,-72.595988)" xml:space="preserve" style="font-size:24px;line-height:1.25;font-family:'Constance Script SL';-inkscape-font-specification:'Constance Script SL, Normal';text-decoration-color:#000;letter-spacing:0;word-spacing:0;white-space:pre;shape-inside:url(#rect4091);display:inline;fill:#000;fill-opacity:1;stroke:#000;stroke-width:0;stroke-linecap:round;paint-order:stroke fill markers;stop-color:#000"><tspan id="tspan806" x="-241.318" y="205.759"><tspan style="font-family:Arial;-inkscape-font-specification:Arial" id="tspan804">?</tspan></tspan></text><text id="text4095" transform="matrix(0.26458333,0,0,0.26458333,152.76292,-72.595988)" xml:space="preserve" style="font-size:24px;line-height:1.25;font-family:'Constance Script SL';-inkscape-font-specification:'Constance Script SL, Normal';text-decoration-color:#000;letter-spacing:0;word-spacing:0;white-space:pre;shape-inside:url(#rect4097);display:inline;fill:#000;fill-opacity:1;stroke:#000;stroke-width:0;stroke-linecap:round;paint-order:stroke fill markers;stop-color:#000"><tspan id="tspan810" x="-241.318" y="205.759"><tspan style="font-family:Arial;-inkscape-font-specification:Arial" id="tspan808">?</tspan></tspan></text><text id="text4101" transform="matrix(0.26458333,0,0,0.26458333,152.76292,-72.595988)" xml:space="preserve" style="font-size:24px;line-height:1.25;font-family:'Constance Script SL';-inkscape-font-specification:'Constance Script SL, Normal';text-decoration-color:#000;letter-spacing:0;word-spacing:0;white-space:pre;shape-inside:url(#rect4103);display:inline;fill:#000;fill-opacity:1;stroke:#000;stroke-width:0;stroke-linecap:round;paint-order:stroke fill markers;stop-color:#000"><tspan id="tspan814" x="-241.318" y="205.759"><tspan style="font-family:Arial;-inkscape-font-specification:Arial" id="tspan812">?</tspan></tspan></text><text id="text4107" transform="matrix(0.26458333,0,0,0.26458333,152.76292,-72.595988)" xml:space="preserve" style="font-size:24px;line-height:1.25;font-family:'Constance Script SL';-inkscape-font-specification:'Constance Script SL, Normal';text-decoration-color:#000;letter-spacing:0;word-spacing:0;white-space:pre;shape-inside:url(#rect4109);display:inline;fill:#000;fill-opacity:1;stroke:#000;stroke-width:0;stroke-linecap:round;paint-order:stroke fill markers;stop-color:#000"><tspan id="tspan818" x="-241.318" y="205.759"><tspan style="font-family:Arial;-inkscape-font-specification:Arial" id="tspan816">?</tspan></tspan></text><rect style="fill:#ccc;stroke:#000;stroke-width:.111;paint-order:stroke fill markers;stop-color:#000" id="rect378" width="30" height="30" x="58.752" y="10.011" ry="1.669"/><rect style="fill:#ccc;stroke:#000;stroke-width:.111;paint-order:stroke fill markers;stop-color:#000" id="rect392" width="30" height="30" x="13.146" y="56.939" ry="1.669"/><rect style="fill:#ccc;stroke:#000;stroke-width:.111;paint-order:stroke fill markers;stop-color:#000" id="rect1248" width="30" height="30" x="57.233" y="56.545" ry="1.669"/><rect style="fill:#ccc;stroke:#000;stroke-width:.111;paint-order:stroke fill markers;stop-color:#000" id="rect423" width="30" height="30" x="102.183" y="10.011" ry="1.669"/><rect style="fill:#ccc;stroke:#000;stroke-width:.111;paint-order:stroke fill markers;stop-color:#000" id="rect425" width="30" height="30" x="147.789" y="10.011" ry="1.669"/><rect style="fill:#ccc;stroke:#000;stroke-width:.111;paint-order:stroke fill markers;stop-color:#000" id="rect427" width="30" height="30" x="102.183" y="56.939" ry="1.669"/><rect style="fill:#ccc;stroke:#000;stroke-width:.111;paint-order:stroke fill markers;stop-color:#000" id="rect429" width="30" height="30" x="146.27" y="56.545" ry="1.669"/></g><g id="g622" style="display:inline"><rect style="fill:#ff2a2a;fill-opacity:1;stroke:#000;stroke-width:0;stroke-dasharray:none;paint-order:stroke fill markers;stop-color:#000" id="rect421" width="15.35" height="7.786" x="18.691" y="-27.475" ry="2.539"/><text id="text427" transform="matrix(0.26458333,0,0,0.26458333,152.76292,-72.595988)" xml:space="preserve" style="font-size:24px;line-height:1.25;font-family:'Constance Script SL';-inkscape-font-specification:'Constance Script SL, Normal';text-decoration-color:#000;letter-spacing:0;word-spacing:0;white-space:pre;shape-inside:url(#rect624);display:inline;fill:#000;fill-opacity:1;stroke:#000;stroke-width:0;stroke-linecap:round;paint-order:stroke fill markers;stop-color:#000"><tspan id="tspan822" x="-241.318" y="205.759"><tspan style="font-family:Arial;-inkscape-font-specification:Arial" id="tspan820">?</tspan></tspan></text><text id="text433" transform="matrix(0.26458333,0,0,0.26458333,152.76292,-72.595988)" xml:space="preserve" style="font-size:24px;line-height:1.25;font-family:'Constance Script SL';-inkscape-font-specification:'Constance Script SL, Normal';text-decoration-color:#000;letter-spacing:0;word-spacing:0;white-space:pre;shape-inside:url(#rect626);display:inline;fill:#000;fill-opacity:1;stroke:#000;stroke-width:0;stroke-linecap:round;paint-order:stroke fill markers;stop-color:#000"><tspan id="tspan826" x="-241.318" y="205.759"><tspan style="font-family:Arial;-inkscape-font-specification:Arial" id="tspan824">?</tspan></tspan></text><text id="text439" transform="matrix(0.26458333,0,0,0.26458333,152.76292,-72.595988)" xml:space="preserve" style="font-size:24px;line-height:1.25;font-family:'Constance Script SL';-inkscape-font-specification:'Constance Script SL, Normal';text-decoration-color:#000;letter-spacing:0;word-spacing:0;white-space:pre;shape-inside:url(#rect628);display:inline;fill:#000;fill-opacity:1;stroke:#000;stroke-width:0;stroke-linecap:round;paint-order:stroke fill markers;stop-color:#000"><tspan id="tspan830" x="-241.318" y="205.759"><tspan style="font-family:Arial;-inkscape-font-specification:Arial" id="tspan828">?</tspan></tspan></text><text id="text445" transform="matrix(0.26458333,0,0,0.26458333,152.76292,-72.595988)" xml:space="preserve" style="font-size:24px;line-height:1.25;font-family:'Constance Script SL';-inkscape-font-specification:'Constance Script SL, Normal';text-decoration-color:#000;letter-spacing:0;word-spacing:0;white-space:pre;shape-inside:url(#rect630);display:inline;fill:#000;fill-opacity:1;stroke:#000;stroke-width:0;stroke-linecap:round;paint-order:stroke fill markers;stop-color:#000"><tspan id="tspan834" x="-241.318" y="205.759"><tspan style="font-family:Arial;-inkscape-font-specification:Arial" id="tspan832">?</tspan></tspan></text><text id="text451" transform="matrix(0.26458333,0,0,0.26458333,152.76292,-72.595988)" xml:space="preserve" style="font-size:24px;line-height:1.25;font-family:'Constance Script SL';-inkscape-font-specification:'Constance Script SL, Normal';text-decoration-color:#000;letter-spacing:0;word-spacing:0;white-space:pre;shape-inside:url(#rect632);display:inline;fill:#000;fill-opacity:1;stroke:#000;stroke-width:0;stroke-linecap:round;paint-order:stroke fill markers;stop-color:#000"><tspan id="tspan838" x="-241.318" y="205.759"><tspan style="font-family:Arial;-inkscape-font-specification:Arial" id="tspan836">?</tspan></tspan></text><text id="text457" transform="matrix(0.26458333,0,0,0.26458333,152.76292,-72.595988)" xml:space="preserve" style="font-size:24px;line-height:1.25;font-family:'Constance Script SL';-inkscape-font-specification:'Constance Script SL, Normal';text-decoration-color:#000;letter-spacing:0;word-spacing:0;white-space:pre;shape-inside:url(#rect634);display:inline;fill:#000;fill-opacity:1;stroke:#000;stroke-width:0;stroke-linecap:round;paint-order:stroke fill markers;stop-color:#000"><tspan id="tspan842" x="-241.318" y="205.759"><tspan style="font-family:Arial;-inkscape-font-specification:Arial" id="tspan840">?</tspan></tspan></text><text id="text463" transform="matrix(0.26458333,0,0,0.26458333,152.76292,-72.595988)" xml:space="preserve" style="font-size:24px;line-height:1.25;font-family:'Constance Script SL';-inkscape-font-specification:'Constance Script SL, Normal';text-decoration-color:#000;letter-spacing:0;word-spacing:0;white-space:pre;shape-inside:url(#rect636);display:inline;fill:#000;fill-opacity:1;stroke:#000;stroke-width:0;stroke-linecap:round;paint-order:stroke fill markers;stop-color:#000"><tspan id="tspan846" x="-241.318" y="205.759"><tspan style="font-family:Arial;-inkscape-font-specification:Arial" id="tspan844">?</tspan></tspan></text><rect style="fill:#0f0;stroke:none;stroke-width:.264583;stroke-linecap:round;stop-color:#000" id="rect690" width="26.113" height="8.775" x="15.259" y="13.571" ry="2.165"/><rect style="fill:#f0f;stroke:none;stroke-width:.264583;stroke-linecap:round;stop-color:#000" id="rect692" width="26.113" height="8.775" x="15.259" y="27.449" ry="2.165"/><rect style="fill:#f0f;stroke:none;stroke-width:.264583;stroke-linecap:round;stop-color:#000" id="rect694" width="26.113" height="8.775" x="60.721" y="13.571" ry="2.165"/><rect style="fill:#0f0;stroke:none;stroke-width:.264583;stroke-linecap:round;stop-color:#000" id="rect696" width="26.113" height="8.775" x="60.721" y="27.449" ry="2.165"/><rect style="fill:#0f0;stroke:none;stroke-width:.264583;stroke-linecap:round;stop-color:#000" id="rect705" width="26.113" height="8.775" x="59.16" y="-39.586" ry="2.165" transform="rotate(90)"/><rect style="fill:#f0f;stroke:none;stroke-width:.264583;stroke-linecap:round;stop-color:#000" id="rect707" width="26.113" height="8.775" x="59.16" y="-25.708" ry="2.165" transform="rotate(90)"/><rect style="fill:#0f0;stroke:none;stroke-width:.264584;stroke-linecap:round;stop-color:#000" id="rect377" width="23.911" height="23.725" x="59.474" y="-83.76" ry="5.852" transform="rotate(90)"/><rect style="fill:#f0f;stroke:none;stroke-width:.264584;stroke-linecap:round;stop-color:#000" id="rect385" width="5.506" height="5.463" x="47.833" y="-103.882" ry="1.348" transform="rotate(90)"/><g id="g439" transform="translate(44.833157,-47.035488)" style="fill:#0f0"><rect style="fill:#0f0;stroke:none;stroke-width:.264584;stroke-linecap:round;stop-color:#000" id="rect431" width="5.506" height="5.463" x="59.16" y="-64.24" ry="1.348" transform="rotate(90)"/><rect style="fill:#0f0;stroke:none;stroke-width:.264584;stroke-linecap:round;stop-color:#000" id="rect433" width="5.506" height="5.463" x="59.16" y="-71.372" ry="1.348" transform="rotate(90)"/><rect style="fill:#0f0;stroke:none;stroke-width:.264584;stroke-linecap:round;stop-color:#000" id="rect435" width="5.506" height="5.463" x="59.16" y="-78.503" ry="1.348" transform="rotate(90)"/><rect style="fill:#0f0;stroke:none;stroke-width:.264584;stroke-linecap:round;stop-color:#000" id="rect437" width="5.506" height="5.463" x="59.16" y="-85.634" ry="1.348" transform="rotate(90)"/></g><g id="g449" transform="translate(44.833157,-40.166314)" style="fill:#0f0"><rect style="fill:#0f0;stroke:none;stroke-width:.264584;stroke-linecap:round;stop-color:#000" id="rect441" width="5.506" height="5.463" x="59.16" y="-64.24" ry="1.348" transform="rotate(90)"/><rect style="fill:#0f0;stroke:none;stroke-width:.264584;stroke-linecap:round;stop-color:#000" id="rect443" width="5.506" height="5.463" x="59.16" y="-71.372" ry="1.348" transform="rotate(90)"/><rect style="fill:#0f0;stroke:none;stroke-width:.264584;stroke-linecap:round;stop-color:#000" id="rect445" width="5.506" height="5.463" x="59.16" y="-78.503" ry="1.348" transform="rotate(90)"/><rect style="fill:#0f0;stroke:none;stroke-width:.264584;stroke-linecap:round;stop-color:#000" id="rect447" width="5.506" height="5.463" x="59.16" y="-85.634" ry="1.348" transform="rotate(90)"/></g><g id="g459" transform="translate(44.833157,-33.29714)" style="fill:#f0f"><rect style="fill:#f0f;stroke:none;stroke-width:.264584;stroke-linecap:round;stop-color:#000" id="rect451" width="5.506" height="5.463" x="59.16" y="-64.24" ry="1.348" transform="rotate(90)"/><rect style="fill:#f0f;stroke:none;stroke-width:.264584;stroke-linecap:round;stop-color:#000" id="rect453" width="5.506" height="5.463" x="59.16" y="-71.372" ry="1.348" transform="rotate(90)"/><rect style="fill:#f0f;stroke:none;stroke-width:.264584;stroke-linecap:round;stop-color:#000" id="rect455" width="5.506" height="5.463" x="59.16" y="-78.503" ry="1.348" transform="rotate(90)"/><rect style="fill:#f0f;stroke:none;stroke-width:.264584;stroke-linecap:round;stop-color:#000" id="rect457" width="5.506" height="5.463" x="59.16" y="-85.634" ry="1.348" transform="rotate(90)"/></g><g id="g469" transform="translate(44.833157,-26.427966)" style="fill:#f0f"><rect style="fill:#f0f;stroke:none;stroke-width:.264584;stroke-linecap:round;stop-color:#000" id="rect461" width="5.506" height="5.463" x="59.16" y="-64.24" ry="1.348" transform="rotate(90)"/><rect style="fill:#f0f;stroke:none;stroke-width:.264584;stroke-linecap:round;stop-color:#000" id="rect463" width="5.506" height="5.463" x="59.16" y="-71.372" ry="1.348" transform="rotate(90)"/><rect style="fill:#f0f;stroke:none;stroke-width:.264584;stroke-linecap:round;stop-color:#000" id="rect465" width="5.506" height="5.463" x="59.16" y="-78.503" ry="1.348" transform="rotate(90)"/><rect style="fill:#f0f;stroke:none;stroke-width:.264584;stroke-linecap:round;stop-color:#000" id="rect467" width="5.506" height="5.463" x="59.16" y="-85.634" ry="1.348" transform="rotate(90)"/></g><g id="g479" transform="translate(91.082098,-47.035488)" style="fill:#0f0"><rect style="fill:#0f0;stroke:none;stroke-width:.264584;stroke-linecap:round;stop-color:#000" id="rect471" width="5.506" height="5.463" x="59.16" y="-64.24" ry="1.348" transform="rotate(90)"/><rect style="fill:#0f0;stroke:none;stroke-width:.264584;stroke-linecap:round;stop-color:#000" id="rect473" width="5.506" height="5.463" x="59.16" y="-71.372" ry="1.348" transform="rotate(90)"/><rect style="fill:#0f0;stroke:none;stroke-width:.264584;stroke-linecap:round;stop-color:#000" id="rect475" width="5.506" height="5.463" x="59.16" y="-78.503" ry="1.348" transform="rotate(90)"/><rect style="fill:#0f0;stroke:none;stroke-width:.264584;stroke-linecap:round;stop-color:#000" id="rect477" width="5.506" height="5.463" x="59.16" y="-85.634" ry="1.348" transform="rotate(90)"/></g><g id="g489" transform="translate(91.082098,-40.166314)" style="fill:#0f0"><rect style="fill:#0f0;stroke:none;stroke-width:.264584;stroke-linecap:round;stop-color:#000" id="rect481" width="5.506" height="5.463" x="59.16" y="-64.24" ry="1.348" transform="rotate(90)"/><rect style="fill:#0f0;stroke:none;stroke-width:.264584;stroke-linecap:round;stop-color:#000" id="rect483" width="5.506" height="5.463" x="59.16" y="-71.372" ry="1.348" transform="rotate(90)"/><rect style="fill:#0f0;stroke:none;stroke-width:.264584;stroke-linecap:round;stop-color:#000" id="rect485" width="5.506" height="5.463" x="59.16" y="-78.503" ry="1.348" transform="rotate(90)"/><rect style="fill:#0f0;stroke:none;stroke-width:.264584;stroke-linecap:round;stop-color:#000" id="rect487" width="5.506" height="5.463" x="59.16" y="-85.634" ry="1.348" transform="rotate(90)"/></g><g id="g499" transform="translate(91.082098,-33.29714)" style="fill:#f0f"><rect style="fill:#f0f;stroke:none;stroke-width:.264584;stroke-linecap:round;stop-color:#000" id="rect491" width="5.506" height="5.463" x="59.16" y="-64.24" ry="1.348" transform="rotate(90)"/><rect style="fill:#f0f;stroke:none;stroke-width:.264584;stroke-linecap:round;stop-color:#000" id="rect493" width="5.506" height="5.463" x="59.16" y="-71.372" ry="1.348" transform="rotate(90)"/><rect style="fill:#f0f;stroke:none;stroke-width:.264584;stroke-linecap:round;stop-color:#000" id="rect495" width="5.506" height="5.463" x="59.16" y="-78.503" ry="1.348" transform="rotate(90)"/><rect style="fill:#f0f;stroke:none;stroke-width:.264584;stroke-linecap:round;stop-color:#000" id="rect497" width="5.506" height="5.463" x="59.16" y="-85.634" ry="1.348" transform="rotate(90)"/></g><g id="g510" transform="translate(91.082098,-26.427966)" style="fill:#f0f"><rect style="fill:#f0f;stroke:none;stroke-width:.264584;stroke-linecap:round;stop-color:#000" id="rect501" width="5.506" height="5.463" x="59.16" y="-64.24" ry="1.348" transform="rotate(90)"/><rect style="fill:#f0f;stroke:none;stroke-width:.264584;stroke-linecap:round;stop-color:#000" id="rect503" width="5.506" height="5.463" x="59.16" y="-71.372" ry="1.348" transform="rotate(90)"/><rect style="fill:#f0f;stroke:none;stroke-width:.264584;stroke-linecap:round;stop-color:#000" id="rect505" width="5.506" height="5.463" x="59.16" y="-78.503" ry="1.348" transform="rotate(90)"/><rect style="fill:#f0f;stroke:none;stroke-width:.264584;stroke-linecap:round;stop-color:#000" id="rect508" width="5.506" height="5.463" x="59.16" y="-85.634" ry="1.348" transform="rotate(90)"/></g><g id="g572" transform="rotate(90,116.88168,71.744395)"><g id="g520" transform="translate(44.675848,-0.47192826)" style="fill:#0f0"><rect style="fill:#0f0;stroke:none;stroke-width:.264584;stroke-linecap:round;stop-color:#000" id="rect512" width="5.506" height="5.463" x="59.16" y="-64.24" ry="1.348" transform="rotate(90)"/><rect style="fill:#0f0;stroke:none;stroke-width:.264584;stroke-linecap:round;stop-color:#000" id="rect514" width="5.506" height="5.463" x="59.16" y="-71.372" ry="1.348" transform="rotate(90)"/><rect style="fill:#0f0;stroke:none;stroke-width:.264584;stroke-linecap:round;stop-color:#000" id="rect516" width="5.506" height="5.463" x="59.16" y="-78.503" ry="1.348" transform="rotate(90)"/><rect style="fill:#0f0;stroke:none;stroke-width:.264584;stroke-linecap:round;stop-color:#000" id="rect518" width="5.506" height="5.463" x="59.16" y="-85.634" ry="1.348" transform="rotate(90)"/></g><g id="g530" transform="translate(44.675848,6.3972457)" style="fill:#0f0"><rect style="fill:#0f0;stroke:none;stroke-width:.264584;stroke-linecap:round;stop-color:#000" id="rect522" width="5.506" height="5.463" x="59.16" y="-64.24" ry="1.348" transform="rotate(90)"/><rect style="fill:#0f0;stroke:none;stroke-width:.264584;stroke-linecap:round;stop-color:#000" id="rect524" width="5.506" height="5.463" x="59.16" y="-71.372" ry="1.348" transform="rotate(90)"/><rect style="fill:#0f0;stroke:none;stroke-width:.264584;stroke-linecap:round;stop-color:#000" id="rect526" width="5.506" height="5.463" x="59.16" y="-78.503" ry="1.348" transform="rotate(90)"/><rect style="fill:#0f0;stroke:none;stroke-width:.264584;stroke-linecap:round;stop-color:#000" id="rect528" width="5.506" height="5.463" x="59.16" y="-85.634" ry="1.348" transform="rotate(90)"/></g><g id="g540" transform="translate(44.675848,13.26642)" style="fill:#f0f"><rect style="fill:#f0f;stroke:none;stroke-width:.264584;stroke-linecap:round;stop-color:#000" id="rect532" width="5.506" height="5.463" x="59.16" y="-64.24" ry="1.348" transform="rotate(90)"/><rect style="fill:#f0f;stroke:none;stroke-width:.264584;stroke-linecap:round;stop-color:#000" id="rect534" width="5.506" height="5.463" x="59.16" y="-71.372" ry="1.348" transform="rotate(90)"/><rect style="fill:#f0f;stroke:none;stroke-width:.264584;stroke-linecap:round;stop-color:#000" id="rect536" width="5.506" height="5.463" x="59.16" y="-78.503" ry="1.348" transform="rotate(90)"/><rect style="fill:#f0f;stroke:none;stroke-width:.264584;stroke-linecap:round;stop-color:#000" id="rect538" width="5.506" height="5.463" x="59.16" y="-85.634" ry="1.348" transform="rotate(90)"/></g><g id="g550" transform="translate(44.675848,20.135594)" style="fill:#f0f"><rect style="fill:#f0f;stroke:none;stroke-width:.264584;stroke-linecap:round;stop-color:#000" id="rect542" width="5.506" height="5.463" x="59.16" y="-64.24" ry="1.348" transform="rotate(90)"/><rect style="fill:#f0f;stroke:none;stroke-width:.264584;stroke-linecap:round;stop-color:#000" id="rect544" width="5.506" height="5.463" x="59.16" y="-71.372" ry="1.348" transform="rotate(90)"/><rect style="fill:#f0f;stroke:none;stroke-width:.264584;stroke-linecap:round;stop-color:#000" id="rect546" width="5.506" height="5.463" x="59.16" y="-78.503" ry="1.348" transform="rotate(90)"/><rect style="fill:#f0f;stroke:none;stroke-width:.264584;stroke-linecap:round;stop-color:#000" id="rect548" width="5.506" height="5.463" x="59.16" y="-85.634" ry="1.348" transform="rotate(90)"/></g></g><g id="g582" transform="translate(88.879768,-0.31461865)" style="fill:#0f0"><rect style="fill:#0f0;stroke:none;stroke-width:.264584;stroke-linecap:round;stop-color:#000" id="rect574" width="5.506" height="5.463" x="59.16" y="-64.24" ry="1.348" transform="rotate(90)"/><rect style="fill:#0f0;stroke:none;stroke-width:.264584;stroke-linecap:round;stop-color:#000" id="rect576" width="5.506" height="5.463" x="59.16" y="-71.372" ry="1.348" transform="rotate(90)"/><rect style="fill:#0f0;stroke:none;stroke-width:.264584;stroke-linecap:round;stop-color:#000" id="rect578" width="5.506" height="5.463" x="59.16" y="-78.503" ry="1.348" transform="rotate(90)"/><rect style="fill:#0f0;stroke:none;stroke-width:.264584;stroke-linecap:round;stop-color:#000" id="rect580" width="5.506" height="5.463" x="59.16" y="-85.634" ry="1.348" transform="rotate(90)"/></g><g id="g592" transform="translate(88.879768,6.5545552)" style="fill:#0f0"><rect style="fill:#0f0;stroke:none;stroke-width:.264584;stroke-linecap:round;stop-color:#000" id="rect584" width="5.506" height="5.463" x="59.16" y="-64.24" ry="1.348" transform="rotate(90)"/><rect style="fill:#0f0;stroke:none;stroke-width:.264584;stroke-linecap:round;stop-color:#000" id="rect586" width="5.506" height="5.463" x="59.16" y="-71.372" ry="1.348" transform="rotate(90)"/><rect style="fill:#0f0;stroke:none;stroke-width:.264584;stroke-linecap:round;stop-color:#000" id="rect588" width="5.506" height="5.463" x="59.16" y="-78.503" ry="1.348" transform="rotate(90)"/><rect style="fill:#0f0;stroke:none;stroke-width:.264584;stroke-linecap:round;stop-color:#000" id="rect590" width="5.506" height="5.463" x="59.16" y="-85.634" ry="1.348" transform="rotate(90)"/></g><g id="g602" transform="translate(88.879768,13.423729)" style="fill:#0f0"><rect style="fill:#0f0;stroke:none;stroke-width:.264584;stroke-linecap:round;stop-color:#000" id="rect594" width="5.506" height="5.463" x="59.16" y="-64.24" ry="1.348" transform="rotate(90)"/><rect style="fill:#0f0;stroke:none;stroke-width:.264584;stroke-linecap:round;stop-color:#000" id="rect596" width="5.506" height="5.463" x="59.16" y="-71.372" ry="1.348" transform="rotate(90)"/><rect style="fill:#0f0;stroke:none;stroke-width:.264584;stroke-linecap:round;stop-color:#000" id="rect598" width="5.506" height="5.463" x="59.16" y="-78.503" ry="1.348" transform="rotate(90)"/><rect style="fill:#0f0;stroke:none;stroke-width:.264584;stroke-linecap:round;stop-color:#000" id="rect600" width="5.506" height="5.463" x="59.16" y="-85.634" ry="1.348" transform="rotate(90)"/></g><g id="g612" transform="translate(88.879768,20.292903)" style="fill:#0f0"><rect style="fill:#0f0;stroke:none;stroke-width:.264584;stroke-linecap:round;stop-color:#000" id="rect604" width="5.506" height="5.463" x="59.16" y="-64.24" ry="1.348" transform="rotate(90)"/><rect style="fill:#0f0;stroke:none;stroke-width:.264584;stroke-linecap:round;stop-color:#000" id="rect606" width="5.506" height="5.463" x="59.16" y="-71.372" ry="1.348" transform="rotate(90)"/><rect style="fill:#0f0;stroke:none;stroke-width:.264584;stroke-linecap:round;stop-color:#000" id="rect608" width="5.506" height="5.463" x="59.16" y="-78.503" ry="1.348" transform="rotate(90)"/><rect style="fill:#0f0;stroke:none;stroke-width:.264584;stroke-linecap:round;stop-color:#000" id="rect610" width="5.506" height="5.463" x="59.16" y="-85.634" ry="1.348" transform="rotate(90)"/></g></g></svg>