<svg xmlns="http://www.w3.org/2000/svg" xmlns:svg="http://www.w3.org/2000/svg" xmlns:xlink="http://www.w3.org/1999/xlink" id="svg5" width="210mm" height="297mm" version="1.1" viewBox="0 0 210 297" xml:space="preserve"><defs id="defs2"><rect id="rect4041" width="89.969" height="105.103" x="-241.318" y="184.141"/><rect id="rect4073" width="89.969" height="105.103" x="-241.318" y="184.141"/><rect id="rect4079" width="89.969" height="105.103" x="-241.318" y="184.141"/><rect id="rect4085" width="89.969" height="105.103" x="-241.318" y="184.141"/><rect id="rect4091" width="89.969" height="105.103" x="-241.318" y="184.141"/><rect id="rect4097" width="89.969" height="105.103" x="-241.318" y="184.141"/><rect id="rect4103" width="89.969" height="105.103" x="-241.318" y="184.141"/><rect id="rect4109" width="89.969" height="105.103" x="-241.318" y="184.141"/><rect id="rect4115" width="89.969" height="105.103" x="-241.318" y="184.141"/><rect id="rect4121" width="89.969" height="105.103" x="-241.318" y="184.141"/><rect id="rect4127" width="89.969" height="105.103" x="-241.318" y="184.141"/><rect id="rect4133" width="89.969" height="105.103" x="-241.318" y="184.141"/><rect id="rect4139" width="89.969" height="105.103" x="-241.318" y="184.141"/><rect id="rect4145" width="89.969" height="105.103" x="-241.318" y="184.141"/><rect id="rect4151" width="89.969" height="105.103" x="-241.318" y="184.141"/><rect id="rect507" width="89.969" height="105.103" x="-241.318" y="184.141"/><rect id="rect509" width="89.969" height="105.103" x="-241.318" y="184.141"/><rect id="rect511" width="89.969" height="105.103" x="-241.318" y="184.141"/><rect id="rect513" width="89.969" height="105.103" x="-241.318" y="184.141"/><rect id="rect646" width="89.969" height="105.103" x="-241.318" y="184.141"/><rect id="rect1268" width="89.969" height="105.103" x="-241.318" y="184.141"/><rect id="rect512" width="89.969" height="105.103" x="-241.318" y="184.141"/></defs><g id="layer1" style="display:inline"><rect style="fill:#ccc;stroke:#000;stroke-width:.111;paint-order:stroke fill markers;stop-color:#000" id="rect753" width="30" height="30" x="-84.247" y="10.011" ry="1.669" transform="scale(-1,1)"/><rect style="opacity:1;fill:#ccc;stroke:#000;stroke-width:.111;paint-order:stroke fill markers;stop-color:#000" id="rect631" width="30" height="30" x="167.374" y="10.011" ry="1.669"/><rect style="opacity:1;fill:#ff2a2a;stroke:#000;stroke-width:0;stroke-dasharray:none;paint-order:stroke fill markers;stop-color:#000" id="rect633" width="15.35" height="5.117" x="174.777" y="24.694" ry="1.669"/><g id="g2214" transform="translate(51.777262,-121.91327)"><path style="opacity:1;fill:#fc0;fill-opacity:.866667;stroke:#000;stroke-width:.911;stroke-linecap:round;stroke-dasharray:none;paint-order:stroke fill markers;stop-color:#000" id="path635" d="m 117.45083,155.78627 h 26.44859"/><path style="opacity:1;fill:#fc0;fill-opacity:.866667;stroke:#000;stroke-width:.911;stroke-linecap:round;stroke-dasharray:none;paint-order:stroke fill markers;stop-color:#000" id="path637" d="m 117.45083,158.12449 h 26.44859"/><path style="opacity:1;fill:#fc0;fill-opacity:.866667;stroke:#000;stroke-width:.911;stroke-linecap:round;stroke-dasharray:none;paint-order:stroke fill markers;stop-color:#000" id="path639" d="m 117.45083,160.46271 h 26.44859"/></g><path style="opacity:1;fill:#00f;fill-opacity:.866667;stroke:#000;stroke-width:0;stroke-linecap:round;stroke-dasharray:none;paint-order:stroke fill markers;stop-color:#000" id="path643" d="m 124.80947,68.791887 -2.87646,1.246932 -1.18761,2.901464 -2.91568,-1.152255 -2.89141,1.211884 -1.24693,-2.876467 -2.90146,-1.187603 1.15225,-2.915683 -1.21188,-2.891407 2.87647,-1.246932 1.1876,-2.901464 2.91568,1.152255 2.89141,-1.211883 1.24693,2.876466 2.90147,1.187603 -1.15226,2.915683 z" transform="matrix(0.74301675,0,0,0.74301675,86.335043,-30.734677)"/><rect style="fill:#ccc;stroke:#000;stroke-width:.111;paint-order:stroke fill markers;stop-color:#000" id="rect330" width="30" height="30" x="12.088" y="10.011" ry="1.669"/></g><g id="g510" style="display:inline"><rect style="opacity:1;fill:#ccc;stroke:#000;stroke-width:.111;paint-order:stroke fill markers;stop-color:#000" id="rect442" width="30" height="30" x="167.374" y="10.011" ry="1.669"/><rect style="opacity:1;fill:#ff2a2a;stroke:#000;stroke-width:0;stroke-dasharray:none;paint-order:stroke fill markers;stop-color:#000" id="rect444" width="15.35" height="5.117" x="174.777" y="24.694" ry="1.669"/><g id="g452" transform="translate(51.777262,-121.91327)"><path style="opacity:1;fill:#fc0;fill-opacity:.866667;stroke:#000;stroke-width:.911;stroke-linecap:round;stroke-dasharray:none;paint-order:stroke fill markers;stop-color:#000" id="path446" d="m 117.45083,155.78627 h 26.44859"/><path style="opacity:1;fill:#fc0;fill-opacity:.866667;stroke:#000;stroke-width:.911;stroke-linecap:round;stroke-dasharray:none;paint-order:stroke fill markers;stop-color:#000" id="path448" d="m 117.45083,158.12449 h 26.44859"/><path style="opacity:1;fill:#fc0;fill-opacity:.866667;stroke:#000;stroke-width:.911;stroke-linecap:round;stroke-dasharray:none;paint-order:stroke fill markers;stop-color:#000" id="path450" d="m 117.45083,160.46271 h 26.44859"/></g><path style="opacity:1;fill:#00f;fill-opacity:.866667;stroke:#000;stroke-width:0;stroke-linecap:round;stroke-dasharray:none;paint-order:stroke fill markers;stop-color:#000" id="path454" d="m 124.80947,68.791887 -2.87646,1.246932 -1.18761,2.901464 -2.91568,-1.152255 -2.89141,1.211884 -1.24693,-2.876467 -2.90146,-1.187603 1.15225,-2.915683 -1.21188,-2.891407 2.87647,-1.246932 1.1876,-2.901464 2.91568,1.152255 2.89141,-1.211883 1.24693,2.876466 2.90147,1.187603 -1.15226,2.915683 z" transform="matrix(0.74301675,0,0,0.74301675,86.335043,-30.734677)"/><image id="image504" width="51.858" height="51.858" x="-110.876" y="-80.358" preserveAspectRatio="none" xlink:href="feu_jaune-01.png"/><image id="image506" width="6.786" height="6.786" x="13.214" y="31.099" preserveAspectRatio="none" xlink:href="feu_rouge-01.png" style="stroke-width:7.64249"/><image id="image508" width="6.786" height="6.786" x="13.214" y="21.736" preserveAspectRatio="none" xlink:href="feu_vert_01.png" style="stroke-width:7.64249"/><rect style="fill:#f0f;stroke-width:.264583;stroke-linecap:round;-inkscape-stroke:none;stop-color:#000" id="rect708" width="27.844" height="6.372" x="13.214" y="12.27" ry="3.186"/><rect style="fill:red;stroke-width:.264583;stroke-linecap:round;-inkscape-stroke:none;stop-color:#000" id="rect710" width="20.45" height="6.372" x="20.608" y="31.303" ry="3.186"/><rect style="fill:#0f0;stroke-width:.264583;stroke-linecap:round;-inkscape-stroke:none;stop-color:#000" id="rect712" width="20.45" height="6.372" x="20.608" y="21.787" ry="3.186"/><image id="image714" width="6.786" height="6.786" x="55.373" y="27.247" preserveAspectRatio="none" xlink:href="feu_rouge-01.png" style="stroke-width:7.64249"/><image id="image716" width="6.786" height="6.786" x="55.373" y="14.546" preserveAspectRatio="none" xlink:href="feu_vert_01.png" style="stroke-width:7.64249"/><rect style="fill:red;stroke-width:.264583;stroke-linecap:round;-inkscape-stroke:none;stop-color:#000" id="rect720" width="20.45" height="6.372" x="62.766" y="27.451" ry="3.186"/><rect style="fill:#0f0;stroke-width:.264583;stroke-linecap:round;-inkscape-stroke:none;stop-color:#000" id="rect722" width="20.45" height="6.372" x="62.766" y="14.597" ry="3.186"/></g></svg>